<mxfile host="app.diagrams.net" modified="2024-03-04T17:11:50.135Z" agent="Mozilla/5.0 (Windows NT 10.0; Win64; x64) AppleWebKit/537.36 (KHTML, like Gecko) Chrome/122.0.0.0 Safari/537.36" etag="pNN42gRhF2Xz7Fqab_jM" version="24.0.1" type="device">
  <diagram name="Página-1" id="-PWcez6PeqUAi6k446lX">
    <mxGraphModel dx="989" dy="538" grid="1" gridSize="10" guides="1" tooltips="1" connect="1" arrows="1" fold="1" page="1" pageScale="1" pageWidth="827" pageHeight="1169" math="0" shadow="0">
      <root>
        <mxCell id="0" />
        <mxCell id="1" parent="0" />
        <mxCell id="eXQMCZ6EFU6vYwKu3M7L-1" value="Fluxograma&lt;div&gt;Programa que calcula todas as Tabuadas do 1 ao 10&lt;/div&gt;" style="text;html=1;align=center;verticalAlign=middle;whiteSpace=wrap;rounded=0;" vertex="1" parent="1">
          <mxGeometry x="334" y="40" width="160" height="50" as="geometry" />
        </mxCell>
        <mxCell id="eXQMCZ6EFU6vYwKu3M7L-2" value="Início" style="strokeWidth=2;html=1;shape=mxgraph.flowchart.start_1;whiteSpace=wrap;" vertex="1" parent="1">
          <mxGeometry x="379" y="110" width="70" height="30" as="geometry" />
        </mxCell>
        <mxCell id="eXQMCZ6EFU6vYwKu3M7L-3" value="Fim" style="strokeWidth=2;html=1;shape=mxgraph.flowchart.start_1;whiteSpace=wrap;" vertex="1" parent="1">
          <mxGeometry x="379" y="390" width="70" height="30" as="geometry" />
        </mxCell>
        <mxCell id="eXQMCZ6EFU6vYwKu3M7L-4" value="i, j" style="rounded=1;whiteSpace=wrap;html=1;absoluteArcSize=1;arcSize=14;strokeWidth=2;" vertex="1" parent="1">
          <mxGeometry x="384" y="170" width="60" height="30" as="geometry" />
        </mxCell>
        <mxCell id="eXQMCZ6EFU6vYwKu3M7L-5" value="i &amp;lt;= 10" style="strokeWidth=2;html=1;shape=mxgraph.flowchart.decision;whiteSpace=wrap;" vertex="1" parent="1">
          <mxGeometry x="434" y="290" width="60" height="50" as="geometry" />
        </mxCell>
        <mxCell id="eXQMCZ6EFU6vYwKu3M7L-6" value="i = 1&lt;div&gt;j = 1&lt;/div&gt;" style="rounded=1;whiteSpace=wrap;html=1;absoluteArcSize=1;arcSize=14;strokeWidth=2;" vertex="1" parent="1">
          <mxGeometry x="388" y="230" width="56" height="40" as="geometry" />
        </mxCell>
      </root>
    </mxGraphModel>
  </diagram>
</mxfile>
